<?xml version='1.0' encoding='utf-8'?>
<svg xmlns="http://www.w3.org/2000/svg" viewBox="0 0 300 470" width="300" height="470">
  <g transform="translate(0,30)">
    <defs>
      <linearGradient id="g_her" x1="0" y1="0" x2="0" y2="1">
        <stop offset="0" stop-color="#5A2240"/><stop offset="1" stop-color="#3A1224"/>
      </linearGradient>
      <linearGradient id="sheen_her" x1="0" y1="0" x2="0" y2="1"><stop offset="0" stop-color="#FFFFFF" stop-opacity="0.15"/><stop offset="0.46" stop-color="#FFFFFF" stop-opacity="0"/></linearGradient>
    </defs>
    <path d="M 149 35 C 120 -6 180 -6 151 35" fill="none" stroke="#D9A93C" stroke-width="3.2" opacity="0.9"/>
    <circle cx="150" cy="-8" r="4.5" fill="#D9A93C" opacity="0.95"/>
    <path d="M 75 0 L 225 0 L 300 70 L 300 416 Q 300 440 276 440 L 24 440 Q 0 440 0 416 L 0 70 L 75 0 Z M 141 35 a 9 9 0 1 0 18 0 a 9 9 0 1 0 -18 0 Z" fill-rule="evenodd" fill="url(#g_her)" stroke="#FBF5EC" stroke-opacity="0.18" stroke-width="1.5"/>
    <path d="M 75 0 L 225 0 L 300 70 L 300 416 Q 300 440 276 440 L 24 440 Q 0 440 0 416 L 0 70 L 75 0 Z M 141 35 a 9 9 0 1 0 18 0 a 9 9 0 1 0 -18 0 Z" fill-rule="evenodd" fill="url(#sheen_her)"/>
    <circle cx="150" cy="35" r="15" fill="none" stroke="#D9A93C" stroke-width="4"/>
    <circle cx="150" cy="35" r="15" fill="none" stroke="#FBF5EC" stroke-opacity="0.15" stroke-width="1"/>
    <path d="M 85 84 L 215 84 L 286 92 L 286 422 Q 286 426 282 426 L 18 426 Q 14 426 14 422 L 14 92 L 85 84 Z" fill="none" stroke="#FBF5EC" stroke-opacity="0.5" stroke-width="1.4" stroke-dasharray="5 4"/>
    <text x="150" y="114" text-anchor="middle" font-family="Arial, Helvetica, sans-serif" font-size="11" letter-spacing="3" fill="#FBF5EC" opacity="0.7">EXPERIENCE LANE</text>
    <text x="150" y="148" text-anchor="middle" font-family="Playfair Display" font-weight="700" font-size="30" fill="#FBF5EC" letter-spacing="0.5">HER</text><text x="150" y="179.8" text-anchor="middle" font-family="Playfair Display" font-weight="700" font-size="30" fill="#FBF5EC" letter-spacing="0.5">Retreats</text>
    <circle cx="163.0" cy="287.6" r="8.1" fill="#D9A93C" opacity="0.95"/><circle cx="156.5" cy="298.9" r="8.1" fill="#D9A93C" opacity="0.95"/><circle cx="143.5" cy="298.9" r="8.1" fill="#D9A93C" opacity="0.95"/><circle cx="137.0" cy="287.6" r="8.1" fill="#D9A93C" opacity="0.95"/><circle cx="143.5" cy="276.3" r="8.1" fill="#D9A93C" opacity="0.95"/><circle cx="156.5" cy="276.3" r="8.1" fill="#D9A93C" opacity="0.95"/><circle cx="150" cy="287.6" r="7.2" fill="#D9A93C"/>
    <text x="150" y="241.6" text-anchor="middle" font-family="Playfair Display" font-style="italic" font-size="16" fill="#FBF5EC" opacity="0.92">A deep dive.</text>
    <rect x="90" y="348" width="3" height="34" fill="#FBF5EC"/><rect x="96" y="348" width="1" height="34" fill="#FBF5EC"/><rect x="100" y="348" width="2" height="34" fill="#FBF5EC"/><rect x="105" y="348" width="1" height="34" fill="#FBF5EC"/><rect x="109" y="348" width="3" height="34" fill="#FBF5EC"/><rect x="115" y="348" width="2" height="34" fill="#FBF5EC"/><rect x="120" y="348" width="1" height="34" fill="#FBF5EC"/><rect x="124" y="348" width="2" height="34" fill="#FBF5EC"/><rect x="129" y="348" width="3" height="34" fill="#FBF5EC"/><rect x="135" y="348" width="1" height="34" fill="#FBF5EC"/><rect x="139" y="348" width="1" height="34" fill="#FBF5EC"/><rect x="143" y="348" width="2" height="34" fill="#FBF5EC"/><rect x="148" y="348" width="3" height="34" fill="#FBF5EC"/><rect x="154" y="348" width="1" height="34" fill="#FBF5EC"/><rect x="158" y="348" width="2" height="34" fill="#FBF5EC"/><rect x="163" y="348" width="1" height="34" fill="#FBF5EC"/><rect x="167" y="348" width="2" height="34" fill="#FBF5EC"/><rect x="172" y="348" width="3" height="34" fill="#FBF5EC"/><rect x="178" y="348" width="1" height="34" fill="#FBF5EC"/><rect x="182" y="348" width="2" height="34" fill="#FBF5EC"/><rect x="187" y="348" width="1" height="34" fill="#FBF5EC"/><rect x="191" y="348" width="3" height="34" fill="#FBF5EC"/>
    <text x="150" y="400" text-anchor="middle" font-family="Arial, Helvetica, sans-serif" font-size="11" letter-spacing="4" fill="#FBF5EC" opacity="0.75">HER 03</text>
  </g></svg>