<?xml version='1.0' encoding='utf-8'?>
<svg xmlns="http://www.w3.org/2000/svg" viewBox="0 0 1084 1196" width="1084" height="1196">
<rect width="1084" height="1196" fill="#FBF5EC"/>
<text x="542" y="46" text-anchor="middle" font-family="Arial, Helvetica, sans-serif" font-size="15" letter-spacing="5" fill="#4D1A33">CHOOSE YOUR EXCHANGE</text>
<text x="542" y="72" text-anchor="middle" font-family="Playfair Display" font-style="italic" font-size="17" fill="#D9A93C">Six lanes, six tags.</text>
<g transform="translate(46,140)">
  <g transform="translate(0,30)">
    <defs>
      <linearGradient id="g_brunch" x1="0" y1="0" x2="0" y2="1">
        <stop offset="0" stop-color="#D9A93C"/><stop offset="1" stop-color="#C9962F"/>
      </linearGradient>
      <linearGradient id="sheen_brunch" x1="0" y1="0" x2="0" y2="1"><stop offset="0" stop-color="#FFFFFF" stop-opacity="0.15"/><stop offset="0.46" stop-color="#FFFFFF" stop-opacity="0"/></linearGradient>
    </defs>
    <path d="M 149 35 C 120 -6 180 -6 151 35" fill="none" stroke="#D9A93C" stroke-width="3.2" opacity="0.9"/>
    <circle cx="150" cy="-8" r="4.5" fill="#D9A93C" opacity="0.95"/>
    <path d="M 75 0 L 225 0 L 300 70 L 300 416 Q 300 440 276 440 L 24 440 Q 0 440 0 416 L 0 70 L 75 0 Z M 141 35 a 9 9 0 1 0 18 0 a 9 9 0 1 0 -18 0 Z" fill-rule="evenodd" fill="url(#g_brunch)" stroke="#4D1A33" stroke-opacity="0.18" stroke-width="1.5"/>
    <path d="M 75 0 L 225 0 L 300 70 L 300 416 Q 300 440 276 440 L 24 440 Q 0 440 0 416 L 0 70 L 75 0 Z M 141 35 a 9 9 0 1 0 18 0 a 9 9 0 1 0 -18 0 Z" fill-rule="evenodd" fill="url(#sheen_brunch)"/>
    <circle cx="150" cy="35" r="15" fill="none" stroke="#4D1A33" stroke-width="4"/>
    <circle cx="150" cy="35" r="15" fill="none" stroke="#4D1A33" stroke-opacity="0.15" stroke-width="1"/>
    <path d="M 85 84 L 215 84 L 286 92 L 286 422 Q 286 426 282 426 L 18 426 Q 14 426 14 422 L 14 92 L 85 84 Z" fill="none" stroke="#4D1A33" stroke-opacity="0.5" stroke-width="1.4" stroke-dasharray="5 4"/>
    <text x="150" y="114" text-anchor="middle" font-family="Arial, Helvetica, sans-serif" font-size="11" letter-spacing="3" fill="#4D1A33" opacity="0.7">EXPERIENCE LANE</text>
    <text x="150" y="148" text-anchor="middle" font-family="Playfair Display" font-weight="700" font-size="30" fill="#4D1A33" letter-spacing="0.5">Empowerment</text><text x="150" y="179.8" text-anchor="middle" font-family="Playfair Display" font-weight="700" font-size="30" fill="#4D1A33" letter-spacing="0.5">Brunch</text>
    
    <text x="150" y="241.6" text-anchor="middle" font-family="Playfair Display" font-style="italic" font-size="16" fill="#4D1A33" opacity="0.92">A seat at the table.</text>
    <rect x="90" y="348" width="3" height="34" fill="#4D1A33"/><rect x="96" y="348" width="1" height="34" fill="#4D1A33"/><rect x="100" y="348" width="2" height="34" fill="#4D1A33"/><rect x="105" y="348" width="1" height="34" fill="#4D1A33"/><rect x="109" y="348" width="3" height="34" fill="#4D1A33"/><rect x="115" y="348" width="2" height="34" fill="#4D1A33"/><rect x="120" y="348" width="1" height="34" fill="#4D1A33"/><rect x="124" y="348" width="2" height="34" fill="#4D1A33"/><rect x="129" y="348" width="3" height="34" fill="#4D1A33"/><rect x="135" y="348" width="1" height="34" fill="#4D1A33"/><rect x="139" y="348" width="1" height="34" fill="#4D1A33"/><rect x="143" y="348" width="2" height="34" fill="#4D1A33"/><rect x="148" y="348" width="3" height="34" fill="#4D1A33"/><rect x="154" y="348" width="1" height="34" fill="#4D1A33"/><rect x="158" y="348" width="2" height="34" fill="#4D1A33"/><rect x="163" y="348" width="1" height="34" fill="#4D1A33"/><rect x="167" y="348" width="2" height="34" fill="#4D1A33"/><rect x="172" y="348" width="3" height="34" fill="#4D1A33"/><rect x="178" y="348" width="1" height="34" fill="#4D1A33"/><rect x="182" y="348" width="2" height="34" fill="#4D1A33"/><rect x="187" y="348" width="1" height="34" fill="#4D1A33"/><rect x="191" y="348" width="3" height="34" fill="#4D1A33"/>
    <text x="150" y="400" text-anchor="middle" font-family="Arial, Helvetica, sans-serif" font-size="11" letter-spacing="4" fill="#4D1A33" opacity="0.75">BRN 01</text>
  </g></g><g transform="translate(392,140)">
  <g transform="translate(0,30)">
    <defs>
      <linearGradient id="g_workshops" x1="0" y1="0" x2="0" y2="1">
        <stop offset="0" stop-color="#6F9072"/><stop offset="1" stop-color="#5E7E61"/>
      </linearGradient>
      <linearGradient id="sheen_workshops" x1="0" y1="0" x2="0" y2="1"><stop offset="0" stop-color="#FFFFFF" stop-opacity="0.15"/><stop offset="0.46" stop-color="#FFFFFF" stop-opacity="0"/></linearGradient>
    </defs>
    <path d="M 149 35 C 120 -6 180 -6 151 35" fill="none" stroke="#D9A93C" stroke-width="3.2" opacity="0.9"/>
    <circle cx="150" cy="-8" r="4.5" fill="#D9A93C" opacity="0.95"/>
    <path d="M 75 0 L 225 0 L 300 70 L 300 416 Q 300 440 276 440 L 24 440 Q 0 440 0 416 L 0 70 L 75 0 Z M 141 35 a 9 9 0 1 0 18 0 a 9 9 0 1 0 -18 0 Z" fill-rule="evenodd" fill="url(#g_workshops)" stroke="#FBF5EC" stroke-opacity="0.18" stroke-width="1.5"/>
    <path d="M 75 0 L 225 0 L 300 70 L 300 416 Q 300 440 276 440 L 24 440 Q 0 440 0 416 L 0 70 L 75 0 Z M 141 35 a 9 9 0 1 0 18 0 a 9 9 0 1 0 -18 0 Z" fill-rule="evenodd" fill="url(#sheen_workshops)"/>
    <circle cx="150" cy="35" r="15" fill="none" stroke="#FBF5EC" stroke-width="4"/>
    <circle cx="150" cy="35" r="15" fill="none" stroke="#FBF5EC" stroke-opacity="0.15" stroke-width="1"/>
    <path d="M 85 84 L 215 84 L 286 92 L 286 422 Q 286 426 282 426 L 18 426 Q 14 426 14 422 L 14 92 L 85 84 Z" fill="none" stroke="#FBF5EC" stroke-opacity="0.5" stroke-width="1.4" stroke-dasharray="5 4"/>
    <text x="150" y="114" text-anchor="middle" font-family="Arial, Helvetica, sans-serif" font-size="11" letter-spacing="3" fill="#FBF5EC" opacity="0.7">EXPERIENCE LANE</text>
    <text x="150" y="148" text-anchor="middle" font-family="Playfair Display" font-weight="700" font-size="30" fill="#FBF5EC" letter-spacing="0.5">Carry On</text><text x="150" y="179.8" text-anchor="middle" font-family="Playfair Display" font-weight="700" font-size="30" fill="#FBF5EC" letter-spacing="0.5">Workshop</text>
    
    <text x="150" y="241.6" text-anchor="middle" font-family="Playfair Display" font-style="italic" font-size="16" fill="#FBF5EC" opacity="0.92">Practice the work</text>
    <rect x="90" y="348" width="3" height="34" fill="#FBF5EC"/><rect x="96" y="348" width="1" height="34" fill="#FBF5EC"/><rect x="100" y="348" width="2" height="34" fill="#FBF5EC"/><rect x="105" y="348" width="1" height="34" fill="#FBF5EC"/><rect x="109" y="348" width="3" height="34" fill="#FBF5EC"/><rect x="115" y="348" width="2" height="34" fill="#FBF5EC"/><rect x="120" y="348" width="1" height="34" fill="#FBF5EC"/><rect x="124" y="348" width="2" height="34" fill="#FBF5EC"/><rect x="129" y="348" width="3" height="34" fill="#FBF5EC"/><rect x="135" y="348" width="1" height="34" fill="#FBF5EC"/><rect x="139" y="348" width="1" height="34" fill="#FBF5EC"/><rect x="143" y="348" width="2" height="34" fill="#FBF5EC"/><rect x="148" y="348" width="3" height="34" fill="#FBF5EC"/><rect x="154" y="348" width="1" height="34" fill="#FBF5EC"/><rect x="158" y="348" width="2" height="34" fill="#FBF5EC"/><rect x="163" y="348" width="1" height="34" fill="#FBF5EC"/><rect x="167" y="348" width="2" height="34" fill="#FBF5EC"/><rect x="172" y="348" width="3" height="34" fill="#FBF5EC"/><rect x="178" y="348" width="1" height="34" fill="#FBF5EC"/><rect x="182" y="348" width="2" height="34" fill="#FBF5EC"/><rect x="187" y="348" width="1" height="34" fill="#FBF5EC"/><rect x="191" y="348" width="3" height="34" fill="#FBF5EC"/>
    <text x="150" y="400" text-anchor="middle" font-family="Arial, Helvetica, sans-serif" font-size="11" letter-spacing="4" fill="#FBF5EC" opacity="0.75">WRK 02</text>
  </g></g><g transform="translate(738,140)">
  <g transform="translate(0,30)">
    <defs>
      <linearGradient id="g_her" x1="0" y1="0" x2="0" y2="1">
        <stop offset="0" stop-color="#5A2240"/><stop offset="1" stop-color="#3A1224"/>
      </linearGradient>
      <linearGradient id="sheen_her" x1="0" y1="0" x2="0" y2="1"><stop offset="0" stop-color="#FFFFFF" stop-opacity="0.15"/><stop offset="0.46" stop-color="#FFFFFF" stop-opacity="0"/></linearGradient>
    </defs>
    <path d="M 149 35 C 120 -6 180 -6 151 35" fill="none" stroke="#D9A93C" stroke-width="3.2" opacity="0.9"/>
    <circle cx="150" cy="-8" r="4.5" fill="#D9A93C" opacity="0.95"/>
    <path d="M 75 0 L 225 0 L 300 70 L 300 416 Q 300 440 276 440 L 24 440 Q 0 440 0 416 L 0 70 L 75 0 Z M 141 35 a 9 9 0 1 0 18 0 a 9 9 0 1 0 -18 0 Z" fill-rule="evenodd" fill="url(#g_her)" stroke="#FBF5EC" stroke-opacity="0.18" stroke-width="1.5"/>
    <path d="M 75 0 L 225 0 L 300 70 L 300 416 Q 300 440 276 440 L 24 440 Q 0 440 0 416 L 0 70 L 75 0 Z M 141 35 a 9 9 0 1 0 18 0 a 9 9 0 1 0 -18 0 Z" fill-rule="evenodd" fill="url(#sheen_her)"/>
    <circle cx="150" cy="35" r="15" fill="none" stroke="#D9A93C" stroke-width="4"/>
    <circle cx="150" cy="35" r="15" fill="none" stroke="#FBF5EC" stroke-opacity="0.15" stroke-width="1"/>
    <path d="M 85 84 L 215 84 L 286 92 L 286 422 Q 286 426 282 426 L 18 426 Q 14 426 14 422 L 14 92 L 85 84 Z" fill="none" stroke="#FBF5EC" stroke-opacity="0.5" stroke-width="1.4" stroke-dasharray="5 4"/>
    <text x="150" y="114" text-anchor="middle" font-family="Arial, Helvetica, sans-serif" font-size="11" letter-spacing="3" fill="#FBF5EC" opacity="0.7">EXPERIENCE LANE</text>
    <text x="150" y="148" text-anchor="middle" font-family="Playfair Display" font-weight="700" font-size="30" fill="#FBF5EC" letter-spacing="0.5">HER</text><text x="150" y="179.8" text-anchor="middle" font-family="Playfair Display" font-weight="700" font-size="30" fill="#FBF5EC" letter-spacing="0.5">Retreats</text>
    <circle cx="163.0" cy="287.6" r="8.1" fill="#D9A93C" opacity="0.95"/><circle cx="156.5" cy="298.9" r="8.1" fill="#D9A93C" opacity="0.95"/><circle cx="143.5" cy="298.9" r="8.1" fill="#D9A93C" opacity="0.95"/><circle cx="137.0" cy="287.6" r="8.1" fill="#D9A93C" opacity="0.95"/><circle cx="143.5" cy="276.3" r="8.1" fill="#D9A93C" opacity="0.95"/><circle cx="156.5" cy="276.3" r="8.1" fill="#D9A93C" opacity="0.95"/><circle cx="150" cy="287.6" r="7.2" fill="#D9A93C"/>
    <text x="150" y="241.6" text-anchor="middle" font-family="Playfair Display" font-style="italic" font-size="16" fill="#FBF5EC" opacity="0.92">A deep dive.</text>
    <rect x="90" y="348" width="3" height="34" fill="#FBF5EC"/><rect x="96" y="348" width="1" height="34" fill="#FBF5EC"/><rect x="100" y="348" width="2" height="34" fill="#FBF5EC"/><rect x="105" y="348" width="1" height="34" fill="#FBF5EC"/><rect x="109" y="348" width="3" height="34" fill="#FBF5EC"/><rect x="115" y="348" width="2" height="34" fill="#FBF5EC"/><rect x="120" y="348" width="1" height="34" fill="#FBF5EC"/><rect x="124" y="348" width="2" height="34" fill="#FBF5EC"/><rect x="129" y="348" width="3" height="34" fill="#FBF5EC"/><rect x="135" y="348" width="1" height="34" fill="#FBF5EC"/><rect x="139" y="348" width="1" height="34" fill="#FBF5EC"/><rect x="143" y="348" width="2" height="34" fill="#FBF5EC"/><rect x="148" y="348" width="3" height="34" fill="#FBF5EC"/><rect x="154" y="348" width="1" height="34" fill="#FBF5EC"/><rect x="158" y="348" width="2" height="34" fill="#FBF5EC"/><rect x="163" y="348" width="1" height="34" fill="#FBF5EC"/><rect x="167" y="348" width="2" height="34" fill="#FBF5EC"/><rect x="172" y="348" width="3" height="34" fill="#FBF5EC"/><rect x="178" y="348" width="1" height="34" fill="#FBF5EC"/><rect x="182" y="348" width="2" height="34" fill="#FBF5EC"/><rect x="187" y="348" width="1" height="34" fill="#FBF5EC"/><rect x="191" y="348" width="3" height="34" fill="#FBF5EC"/>
    <text x="150" y="400" text-anchor="middle" font-family="Arial, Helvetica, sans-serif" font-size="11" letter-spacing="4" fill="#FBF5EC" opacity="0.75">HER 03</text>
  </g></g><g transform="translate(46,656)">
  <g transform="translate(0,30)">
    <defs>
      <linearGradient id="g_podcast" x1="0" y1="0" x2="0" y2="1">
        <stop offset="0" stop-color="#FFFDF8"/><stop offset="1" stop-color="#F1E6D3"/>
      </linearGradient>
      <linearGradient id="sheen_podcast" x1="0" y1="0" x2="0" y2="1"><stop offset="0" stop-color="#FFFFFF" stop-opacity="0.15"/><stop offset="0.46" stop-color="#FFFFFF" stop-opacity="0"/></linearGradient>
    </defs>
    <path d="M 149 35 C 120 -6 180 -6 151 35" fill="none" stroke="#D9A93C" stroke-width="3.2" opacity="0.9"/>
    <circle cx="150" cy="-8" r="4.5" fill="#D9A93C" opacity="0.95"/>
    <path d="M 75 0 L 225 0 L 300 70 L 300 416 Q 300 440 276 440 L 24 440 Q 0 440 0 416 L 0 70 L 75 0 Z M 141 35 a 9 9 0 1 0 18 0 a 9 9 0 1 0 -18 0 Z" fill-rule="evenodd" fill="url(#g_podcast)" stroke="#4D1A33" stroke-opacity="0.18" stroke-width="1.5"/>
    <path d="M 75 0 L 225 0 L 300 70 L 300 416 Q 300 440 276 440 L 24 440 Q 0 440 0 416 L 0 70 L 75 0 Z M 141 35 a 9 9 0 1 0 18 0 a 9 9 0 1 0 -18 0 Z" fill-rule="evenodd" fill="url(#sheen_podcast)"/>
    <circle cx="150" cy="35" r="15" fill="none" stroke="#D9A93C" stroke-width="4"/>
    <circle cx="150" cy="35" r="15" fill="none" stroke="#4D1A33" stroke-opacity="0.15" stroke-width="1"/>
    <path d="M 85 84 L 215 84 L 286 92 L 286 422 Q 286 426 282 426 L 18 426 Q 14 426 14 422 L 14 92 L 85 84 Z" fill="none" stroke="#4D1A33" stroke-opacity="0.5" stroke-width="1.4" stroke-dasharray="5 4"/>
    <text x="150" y="114" text-anchor="middle" font-family="Arial, Helvetica, sans-serif" font-size="11" letter-spacing="3" fill="#4D1A33" opacity="0.7">EXPERIENCE LANE</text>
    <text x="150" y="148" text-anchor="middle" font-family="Playfair Display" font-weight="700" font-size="32" fill="#4D1A33" letter-spacing="0.5">The</text><text x="150" y="181.92000000000002" text-anchor="middle" font-family="Playfair Display" font-weight="700" font-size="32" fill="#4D1A33" letter-spacing="0.5">Podcast</text>
    
    <text x="150" y="245.84" text-anchor="middle" font-family="Playfair Display" font-style="italic" font-size="16" fill="#4D1A33" opacity="0.92">Unpack it in half an hour</text>
    <rect x="90" y="348" width="3" height="34" fill="#4D1A33"/><rect x="96" y="348" width="1" height="34" fill="#4D1A33"/><rect x="100" y="348" width="2" height="34" fill="#4D1A33"/><rect x="105" y="348" width="1" height="34" fill="#4D1A33"/><rect x="109" y="348" width="3" height="34" fill="#4D1A33"/><rect x="115" y="348" width="2" height="34" fill="#4D1A33"/><rect x="120" y="348" width="1" height="34" fill="#4D1A33"/><rect x="124" y="348" width="2" height="34" fill="#4D1A33"/><rect x="129" y="348" width="3" height="34" fill="#4D1A33"/><rect x="135" y="348" width="1" height="34" fill="#4D1A33"/><rect x="139" y="348" width="1" height="34" fill="#4D1A33"/><rect x="143" y="348" width="2" height="34" fill="#4D1A33"/><rect x="148" y="348" width="3" height="34" fill="#4D1A33"/><rect x="154" y="348" width="1" height="34" fill="#4D1A33"/><rect x="158" y="348" width="2" height="34" fill="#4D1A33"/><rect x="163" y="348" width="1" height="34" fill="#4D1A33"/><rect x="167" y="348" width="2" height="34" fill="#4D1A33"/><rect x="172" y="348" width="3" height="34" fill="#4D1A33"/><rect x="178" y="348" width="1" height="34" fill="#4D1A33"/><rect x="182" y="348" width="2" height="34" fill="#4D1A33"/><rect x="187" y="348" width="1" height="34" fill="#4D1A33"/><rect x="191" y="348" width="3" height="34" fill="#4D1A33"/>
    <text x="150" y="400" text-anchor="middle" font-family="Arial, Helvetica, sans-serif" font-size="11" letter-spacing="4" fill="#4D1A33" opacity="0.75">POD 04</text>
  </g></g><g transform="translate(392,656)">
  <g transform="translate(0,30)">
    <defs>
      <linearGradient id="g_shop" x1="0" y1="0" x2="0" y2="1">
        <stop offset="0" stop-color="#E3C6A0"/><stop offset="1" stop-color="#D4B488"/>
      </linearGradient>
      <linearGradient id="sheen_shop" x1="0" y1="0" x2="0" y2="1"><stop offset="0" stop-color="#FFFFFF" stop-opacity="0.15"/><stop offset="0.46" stop-color="#FFFFFF" stop-opacity="0"/></linearGradient>
    </defs>
    <path d="M 149 35 C 120 -6 180 -6 151 35" fill="none" stroke="#D9A93C" stroke-width="3.2" opacity="0.9"/>
    <circle cx="150" cy="-8" r="4.5" fill="#D9A93C" opacity="0.95"/>
    <path d="M 75 0 L 225 0 L 300 70 L 300 416 Q 300 440 276 440 L 24 440 Q 0 440 0 416 L 0 70 L 75 0 Z M 141 35 a 9 9 0 1 0 18 0 a 9 9 0 1 0 -18 0 Z" fill-rule="evenodd" fill="url(#g_shop)" stroke="#21160F" stroke-opacity="0.18" stroke-width="1.5"/>
    <path d="M 75 0 L 225 0 L 300 70 L 300 416 Q 300 440 276 440 L 24 440 Q 0 440 0 416 L 0 70 L 75 0 Z M 141 35 a 9 9 0 1 0 18 0 a 9 9 0 1 0 -18 0 Z" fill-rule="evenodd" fill="url(#sheen_shop)"/>
    <circle cx="150" cy="35" r="15" fill="none" stroke="#4D1A33" stroke-width="4"/>
    <circle cx="150" cy="35" r="15" fill="none" stroke="#21160F" stroke-opacity="0.15" stroke-width="1"/>
    <path d="M 85 84 L 215 84 L 286 92 L 286 422 Q 286 426 282 426 L 18 426 Q 14 426 14 422 L 14 92 L 85 84 Z" fill="none" stroke="#21160F" stroke-opacity="0.5" stroke-width="1.4" stroke-dasharray="5 4"/>
    <text x="150" y="114" text-anchor="middle" font-family="Arial, Helvetica, sans-serif" font-size="11" letter-spacing="3" fill="#21160F" opacity="0.7">EXPERIENCE LANE</text>
    <text x="150" y="148" text-anchor="middle" font-family="Playfair Display" font-weight="700" font-size="30" fill="#21160F" letter-spacing="0.5">The H.O.P.E.</text><text x="150" y="179.8" text-anchor="middle" font-family="Playfair Display" font-weight="700" font-size="30" fill="#21160F" letter-spacing="0.5">Shop</text>
    
    <text x="150" y="241.6" text-anchor="middle" font-family="Playfair Display" font-style="italic" font-size="16" fill="#21160F" opacity="0.92">Shop the tools</text>
    <rect x="90" y="348" width="3" height="34" fill="#21160F"/><rect x="96" y="348" width="1" height="34" fill="#21160F"/><rect x="100" y="348" width="2" height="34" fill="#21160F"/><rect x="105" y="348" width="1" height="34" fill="#21160F"/><rect x="109" y="348" width="3" height="34" fill="#21160F"/><rect x="115" y="348" width="2" height="34" fill="#21160F"/><rect x="120" y="348" width="1" height="34" fill="#21160F"/><rect x="124" y="348" width="2" height="34" fill="#21160F"/><rect x="129" y="348" width="3" height="34" fill="#21160F"/><rect x="135" y="348" width="1" height="34" fill="#21160F"/><rect x="139" y="348" width="1" height="34" fill="#21160F"/><rect x="143" y="348" width="2" height="34" fill="#21160F"/><rect x="148" y="348" width="3" height="34" fill="#21160F"/><rect x="154" y="348" width="1" height="34" fill="#21160F"/><rect x="158" y="348" width="2" height="34" fill="#21160F"/><rect x="163" y="348" width="1" height="34" fill="#21160F"/><rect x="167" y="348" width="2" height="34" fill="#21160F"/><rect x="172" y="348" width="3" height="34" fill="#21160F"/><rect x="178" y="348" width="1" height="34" fill="#21160F"/><rect x="182" y="348" width="2" height="34" fill="#21160F"/><rect x="187" y="348" width="1" height="34" fill="#21160F"/><rect x="191" y="348" width="3" height="34" fill="#21160F"/>
    <text x="150" y="400" text-anchor="middle" font-family="Arial, Helvetica, sans-serif" font-size="11" letter-spacing="4" fill="#21160F" opacity="0.75">SHP 05</text>
  </g></g><g transform="translate(738,656)">
  <g transform="translate(0,30)">
    <defs>
      <linearGradient id="g_house" x1="0" y1="0" x2="0" y2="1">
        <stop offset="0" stop-color="#C5746E"/><stop offset="1" stop-color="#B05F59"/>
      </linearGradient>
      <linearGradient id="sheen_house" x1="0" y1="0" x2="0" y2="1"><stop offset="0" stop-color="#FFFFFF" stop-opacity="0.15"/><stop offset="0.46" stop-color="#FFFFFF" stop-opacity="0"/></linearGradient>
    </defs>
    <path d="M 149 35 C 120 -6 180 -6 151 35" fill="none" stroke="#D9A93C" stroke-width="3.2" opacity="0.9"/>
    <circle cx="150" cy="-8" r="4.5" fill="#D9A93C" opacity="0.95"/>
    <path d="M 75 0 L 225 0 L 300 70 L 300 416 Q 300 440 276 440 L 24 440 Q 0 440 0 416 L 0 70 L 75 0 Z M 141 35 a 9 9 0 1 0 18 0 a 9 9 0 1 0 -18 0 Z" fill-rule="evenodd" fill="url(#g_house)" stroke="#FBF5EC" stroke-opacity="0.18" stroke-width="1.5"/>
    <path d="M 75 0 L 225 0 L 300 70 L 300 416 Q 300 440 276 440 L 24 440 Q 0 440 0 416 L 0 70 L 75 0 Z M 141 35 a 9 9 0 1 0 18 0 a 9 9 0 1 0 -18 0 Z" fill-rule="evenodd" fill="url(#sheen_house)"/>
    <circle cx="150" cy="35" r="15" fill="none" stroke="#FBF5EC" stroke-width="4"/>
    <circle cx="150" cy="35" r="15" fill="none" stroke="#FBF5EC" stroke-opacity="0.15" stroke-width="1"/>
    <path d="M 85 84 L 215 84 L 286 92 L 286 422 Q 286 426 282 426 L 18 426 Q 14 426 14 422 L 14 92 L 85 84 Z" fill="none" stroke="#FBF5EC" stroke-opacity="0.5" stroke-width="1.4" stroke-dasharray="5 4"/>
    <text x="150" y="114" text-anchor="middle" font-family="Arial, Helvetica, sans-serif" font-size="11" letter-spacing="3" fill="#FBF5EC" opacity="0.7">EXPERIENCE LANE</text>
    <text x="150" y="148" text-anchor="middle" font-family="Playfair Display" font-weight="700" font-size="30" fill="#FBF5EC" letter-spacing="0.5">The Exchange</text><text x="150" y="179.8" text-anchor="middle" font-family="Playfair Display" font-weight="700" font-size="30" fill="#FBF5EC" letter-spacing="0.5">House</text>
    
    <text x="150" y="241.6" text-anchor="middle" font-family="Playfair Display" font-style="italic" font-size="16" fill="#FBF5EC" opacity="0.92">Coming soon</text>
    <rect x="90" y="348" width="3" height="34" fill="#FBF5EC"/><rect x="96" y="348" width="1" height="34" fill="#FBF5EC"/><rect x="100" y="348" width="2" height="34" fill="#FBF5EC"/><rect x="105" y="348" width="1" height="34" fill="#FBF5EC"/><rect x="109" y="348" width="3" height="34" fill="#FBF5EC"/><rect x="115" y="348" width="2" height="34" fill="#FBF5EC"/><rect x="120" y="348" width="1" height="34" fill="#FBF5EC"/><rect x="124" y="348" width="2" height="34" fill="#FBF5EC"/><rect x="129" y="348" width="3" height="34" fill="#FBF5EC"/><rect x="135" y="348" width="1" height="34" fill="#FBF5EC"/><rect x="139" y="348" width="1" height="34" fill="#FBF5EC"/><rect x="143" y="348" width="2" height="34" fill="#FBF5EC"/><rect x="148" y="348" width="3" height="34" fill="#FBF5EC"/><rect x="154" y="348" width="1" height="34" fill="#FBF5EC"/><rect x="158" y="348" width="2" height="34" fill="#FBF5EC"/><rect x="163" y="348" width="1" height="34" fill="#FBF5EC"/><rect x="167" y="348" width="2" height="34" fill="#FBF5EC"/><rect x="172" y="348" width="3" height="34" fill="#FBF5EC"/><rect x="178" y="348" width="1" height="34" fill="#FBF5EC"/><rect x="182" y="348" width="2" height="34" fill="#FBF5EC"/><rect x="187" y="348" width="1" height="34" fill="#FBF5EC"/><rect x="191" y="348" width="3" height="34" fill="#FBF5EC"/>
    <text x="150" y="400" text-anchor="middle" font-family="Arial, Helvetica, sans-serif" font-size="11" letter-spacing="4" fill="#FBF5EC" opacity="0.75">HSE 06</text>
  </g></g></svg>
