<?xml version='1.0' encoding='utf-8'?>
<svg xmlns="http://www.w3.org/2000/svg" viewBox="0 0 460 320" width="460" height="320"><defs><linearGradient id="gold" x1="0" y1="0" x2="0" y2="1"><stop offset="0" stop-color="#F0D27A"/><stop offset="0.5" stop-color="#D4A53C"/><stop offset="1" stop-color="#A9781F"/></linearGradient><linearGradient id="plumGrad" x1="0" y1="0" x2="0" y2="1"><stop offset="0" stop-color="#5A2240"/><stop offset="0.55" stop-color="#4D1A33"/><stop offset="1" stop-color="#3A1224"/></linearGradient><linearGradient id="creamGrad" x1="0" y1="0" x2="0" y2="1"><stop offset="0" stop-color="#FFFDF8"/><stop offset="0.48" stop-color="#FBF5EC"/><stop offset="1" stop-color="#F2E8D7"/></linearGradient></defs><rect width="460" height="320" rx="14" fill="url(#plumGrad)"/><g transform="translate(123,17)"><rect x="18" y="28" width="118" height="90" rx="11.7" fill="url(#gold)"/><path d="M60.48,28 L60.48,16.7 Q60.48,12.7 66.47999999999999,12.7 L87.52000000000001,12.7 Q93.52000000000001,12.7 93.52000000000001,16.7 L93.52000000000001,28" fill="none" stroke="#FBF5EC" stroke-width="5.31" stroke-linejoin="round"/><line x1="29.8" y1="55.0" x2="124.2" y2="55.0" stroke="#FBF5EC" stroke-width="2.95"/><rect x="51.0" y="49.6" width="7.1" height="10.8" rx="2" fill="#FBF5EC"/><rect x="95.9" y="49.6" width="7.1" height="10.8" rx="2" fill="#FBF5EC"/><rect x="116" y="74" width="80" height="62" rx="8.1" fill="#FBF5EC"/><path d="M144.8,74 L144.8,67.46000000000001 Q144.8,63.46 150.8,63.46 L161.2,63.46 Q167.2,63.46 167.2,67.46000000000001 L167.2,74" fill="none" stroke="#D9A93C" stroke-width="3.60" stroke-linejoin="round"/><line x1="124.0" y1="92.6" x2="188.0" y2="92.6" stroke="#D9A93C" stroke-width="2.00"/><rect x="138.4" y="88.9" width="4.8" height="7.4" rx="2" fill="#D9A93C"/><rect x="168.8" y="88.9" width="4.8" height="7.4" rx="2" fill="#D9A93C"/></g><text x="230" y="205" text-anchor="middle" font-family="Playfair Display" font-size="18" letter-spacing="9" font-weight="700" fill="#D9A93C">THE</text><text x="230" y="252" text-anchor="middle" font-family="Playfair Display" font-size="44" letter-spacing="2.2" font-weight="700" fill="#FBF5EC">BAGGAGE</text><text x="236.6" y="298" text-anchor="middle" font-family="Playfair Display" font-size="44" letter-spacing="13.2" font-weight="400" fill="#FBF5EC">EXCHANGE</text></svg>