<?xml version='1.0' encoding='utf-8'?>
<svg xmlns="http://www.w3.org/2000/svg" viewBox="0 0 560 800" width="560" height="800"><defs>
<linearGradient id="gold" x1="0" y1="0" x2="0" y2="1"><stop offset="0" stop-color="#F0D27A"/><stop offset="0.5" stop-color="#D4A53C"/><stop offset="1" stop-color="#A9781F"/></linearGradient>
<linearGradient id="plum" x1="0" y1="0" x2="0" y2="1"><stop offset="0" stop-color="#5A2240"/><stop offset="0.55" stop-color="#4D1A33"/><stop offset="1" stop-color="#3A1224"/></linearGradient>
<linearGradient id="cream" x1="0" y1="0" x2="0" y2="1"><stop offset="0" stop-color="#FFFDF8"/><stop offset="0.5" stop-color="#FBF5EC"/><stop offset="1" stop-color="#F2E8D7"/></linearGradient>
<linearGradient id="sheen" x1="0" y1="0" x2="0" y2="1"><stop offset="0" stop-color="#FFFFFF" stop-opacity="0.14"/><stop offset="0.4" stop-color="#FFFFFF" stop-opacity="0"/></linearGradient>
</defs>
<rect width="560" height="800" rx="20" fill="url(#plum)"/>
<rect width="560" height="800" rx="20" fill="url(#sheen)"/>
<rect x="26" y="26" width="508" height="748" rx="12" fill="none" stroke="#D9A93C" stroke-width="2" stroke-opacity="0.85"/>
<rect x="34" y="34" width="492" height="732" rx="9" fill="none" stroke="#D9A93C" stroke-width="1" stroke-opacity="0.45"/>
<text x="280" y="120" text-anchor="middle" font-family="Playfair Display" font-size="17" font-weight="700" letter-spacing="5" fill="#D9A93C">THE BAGGAGE EXCHANGE</text>
<g transform="translate(185,190)">
  
   <path d="M 39.599999999999994 42 q 0 -20.24 20.400000000000002 -20.24 q 20.400000000000002 0 20.400000000000002 20.24" fill="none" stroke="#FBF5EC" stroke-width="5.06" stroke-linecap="round"/>
   <rect x="0" y="40" width="120" height="92" rx="12.88" fill="url(#gold)"/>
   <line x1="4.8" y1="80.47999999999999" x2="115.19999999999999" y2="80.47999999999999" stroke="#FBF5EC" stroke-width="6.44"/>
   <rect x="36" y="74.03999999999999" width="14.399999999999999" height="12.88" rx="2" fill="#FBF5EC"/>
   <rect x="69.6" y="74.03999999999999" width="14.399999999999999" height="12.88" rx="2" fill="#FBF5EC"/>
  
   <path d="M 121.74 88 q 0 -13.2 13.260000000000002 -13.2 q 13.260000000000002 0 13.260000000000002 13.2" fill="none" stroke="#D9A93C" stroke-width="3.3" stroke-linecap="round"/>
   <rect x="96" y="86" width="78" height="60" rx="8.4" fill="#FBF5EC"/>
   <line x1="99.12" y1="112.4" x2="170.88" y2="112.4" stroke="#D9A93C" stroke-width="4.2"/>
   <rect x="119.4" y="108.2" width="9.36" height="8.4" rx="2" fill="#D9A93C"/>
   <rect x="141.24" y="108.2" width="9.36" height="8.4" rx="2" fill="#D9A93C"/>
</g>
<text x="280" y="400" text-anchor="middle" font-family="Playfair Display" font-size="72" font-weight="700" letter-spacing="8" fill="#D9A93C">PASSPORT</text>
<line x1="160" y1="430" x2="400" y2="430" stroke="#D9A93C" stroke-width="1.4" stroke-opacity="0.7"/>
<text x="280" y="470" text-anchor="middle" font-family="Playfair Display" font-size="20" font-weight="500" font-style="italic" fill="#FBF5EC">Check your baggage. Claim your H.O.P.E.</text>
<g transform="translate(280,650)">
  <circle cx="0" cy="0" r="56" fill="none" stroke="#D9A93C" stroke-width="2"/>
  <circle cx="0" cy="0" r="48" fill="none" stroke="#D9A93C" stroke-width="1" stroke-opacity="0.5"/>
  <text x="0" y="-6" text-anchor="middle" font-family="Playfair Display" font-size="15" font-weight="700" letter-spacing="2" fill="#D9A93C">H.O.P.E.</text>
  <text x="0" y="16" text-anchor="middle" font-family="Playfair Display" font-size="9" font-weight="700" letter-spacing="3" fill="#FBF5EC">THE JOURNEY</text>
</g>
<text x="280" y="742" text-anchor="middle" font-family="Arial, Helvetica, sans-serif" font-size="12" font-weight="700" letter-spacing="2" fill="#D9A93C">HEALING  OPPORTUNITY  PURPOSE  EMPOWERMENT</text>
</svg>